<?xml version="1.0" encoding="UTF-8"?>
<svg id="Layer_1" data-name="Layer 1" xmlns="http://www.w3.org/2000/svg" viewBox="0 0 256 128">
  <defs>
    <style>
      .cls-1 {
        fill: #2e2d3b;
      }
    </style>
  </defs>
  <path class="cls-1" d="M236.88,124H19.12c-8.34,0-15.12-6.78-15.12-15.12V19.12c0-8.34,6.78-15.12,15.12-15.12h217.76c8.34,0,15.12,6.78,15.12,15.12v89.76c0,8.34-6.78,15.12-15.12,15.12ZM19.12,6c-7.23,0-13.12,5.88-13.12,13.12v89.76c0,7.23,5.88,13.12,13.12,13.12h217.76c7.23,0,13.12-5.88,13.12-13.12V19.12c0-7.23-5.88-13.12-13.12-13.12H19.12Z"/>
  <g>
    <path class="cls-1" d="M83.56,41.69c0-2.15-1.73-3.91-3.87-3.95-4.82-.1-9.51-1.1-13.94-2.96-4.13-1.73-7.89-4.16-11.2-7.22-.75-.69-1.71-1.06-2.69-1.06-.53,0-1.08.11-1.59.34-.55.24-1.03.59-1.41,1.04-3.21,3.4-6.99,6.13-11.25,8.1-4.33,2.01-8.98,3.13-13.79,3.35-2.12.1-3.79,1.86-3.78,3.98l.22,28.53c0,.32.05.64.13.95,1.45,5.69,4.06,10.83,7.75,15.25,7.7,9.22,17.68,12.32,22.95,13.35.12.02.24.04.35.05.18.03.35.04.52.04.29,0,.57-.03.86-.1,5.38-1.19,15.56-4.6,23.31-14.04,3.3-4,5.77-8.61,7.36-13.69.12-.38.18-.79.18-1.19-.04-10.26-.08-20.51-.11-30.76ZM73.08,84.83c-7.53,9.16-17.45,11.88-21.11,12.69-.04,0-.07-.01-.11-.02h0c-3.38-.66-13.2-3.05-20.66-11.99-4.3-5.15-6.13-10.44-6.96-13.7-.07-9.51-.15-19.02-.22-28.53,3.38-.15,9.02-.81,15.27-3.7,6.16-2.85,10.28-6.64,12.58-9.1h0c2.47,2.29,6.56,5.54,12.36,7.96,6.29,2.64,11.9,3.19,15.39,3.26.03,10.26.07,20.51.11,30.77-1,3.22-2.9,7.82-6.63,12.35Z"/>
    <polygon class="cls-1" points="46.84 77.88 36.21 66.6 41.01 62.07 46.89 68.31 65.2 49.27 69.96 53.84 46.84 77.88"/>
    <g>
      <path class="cls-1" d="M154.83,61.15c0,6.72-5.25,11.66-11.7,11.66s-11.7-4.95-11.7-11.66,5.25-11.66,11.7-11.66,11.7,4.9,11.7,11.66ZM149.71,61.15c0-4.2-3.04-7.07-6.58-7.07s-6.58,2.87-6.58,7.07,3.04,7.07,6.58,7.07,6.58-2.92,6.58-7.07Z"/>
      <path class="cls-1" d="M180.07,61.15c0,6.72-5.25,11.66-11.7,11.66s-11.7-4.95-11.7-11.66,5.25-11.66,11.7-11.66,11.7,4.9,11.7,11.66ZM174.95,61.15c0-4.2-3.04-7.07-6.58-7.07s-6.58,2.87-6.58,7.07,3.04,7.07,6.58,7.07,6.58-2.92,6.58-7.07Z"/>
      <path class="cls-1" d="M204.27,50.19v20.94c0,8.61-5.08,12.13-11.09,12.13-5.65,0-9.06-3.78-10.34-6.87l4.46-1.86c.79,1.9,2.74,4.14,5.87,4.14,3.84,0,6.23-2.37,6.23-6.84v-1.68h-.18c-1.15,1.41-3.36,2.65-6.14,2.65-5.83,0-11.18-5.08-11.18-11.62s5.34-11.71,11.18-11.71c2.78,0,4.99,1.24,6.14,2.61h.18v-1.9h4.86ZM199.76,61.19c0-4.11-2.74-7.11-6.23-7.11s-6.49,3-6.49,7.11,2.96,7.03,6.49,7.03,6.23-2.96,6.23-7.03Z"/>
      <path class="cls-1" d="M212.29,37.91v34.18h-5v-34.18h5Z"/>
      <path class="cls-1" d="M231.75,64.98l3.98,2.65c-1.28,1.9-4.38,5.17-9.72,5.17-6.63,0-11.58-5.12-11.58-11.66,0-6.94,4.99-11.66,11-11.66s9.01,4.82,9.98,7.42l.53,1.33-15.59,6.46c1.19,2.34,3.05,3.53,5.65,3.53s4.42-1.28,5.74-3.23h0ZM219.52,60.79l10.42-4.33c-.57-1.46-2.3-2.47-4.33-2.47-2.6,0-6.23,2.3-6.1,6.8Z"/>
      <path class="cls-1" d="M112.52,58.11v-4.95h16.68c.16.86.25,1.88.25,2.99,0,3.71-1.01,8.3-4.29,11.58-3.18,3.31-7.25,5.08-12.63,5.08-9.98,0-18.37-8.13-18.37-18.11s8.39-18.11,18.37-18.11c5.52,0,9.46,2.17,12.41,4.99l-3.49,3.49c-2.12-1.99-4.99-3.53-8.92-3.53-7.29,0-12.99,5.87-12.99,13.16s5.7,13.16,12.99,13.16c4.73,0,7.42-1.9,9.15-3.62,1.4-1.4,2.32-3.4,2.68-6.13h-11.83Z"/>
    </g>
    <g>
      <path class="cls-1" d="M134.26,44.7c0,1.72-1.14,3.1-3.16,3.1-1.18,0-2.14-.36-2.78-.98v-2.56c.73,1.09,1.63,1.65,2.77,1.65.76,0,1.17-.39,1.17-1.09,0-.61-.6-.9-1.19-1.18l-.8-.36c-1.36-.61-2.04-1.3-2.04-2.83,0-1.89,1.38-3.16,3.24-3.16,1.28,0,2.21.42,2.52.67v2.4c-.51-.68-1.41-1.18-2.43-1.18-.77,0-1.27.48-1.27,1.06s.58.9,1.3,1.25l.63.31c1.35.67,2.07,1.41,2.07,2.9Z"/>
      <path class="cls-1" d="M135.18,37.44h2.13v10.2h-2.13v-10.2Z"/>
      <path class="cls-1" d="M140.11,39.52h-1.95v-2.08h6.02v2.08h-1.94v8.12h-2.13v-8.12Z"/>
      <path class="cls-1" d="M145.02,37.44h5.28v2.08h-3.15v2.04h3.15v1.94h-3.15v2.05h3.15v2.08h-5.28v-10.2Z"/>
      <path class="cls-1" d="M159.68,44.7c0,1.72-1.14,3.1-3.16,3.1-1.18,0-2.14-.36-2.78-.98v-2.56c.73,1.09,1.63,1.65,2.77,1.65.76,0,1.17-.39,1.17-1.09,0-.61-.6-.9-1.19-1.18l-.8-.36c-1.36-.61-2.04-1.3-2.04-2.83,0-1.89,1.38-3.16,3.24-3.16,1.28,0,2.21.42,2.52.67v2.4c-.51-.68-1.41-1.18-2.43-1.18-.77,0-1.27.48-1.27,1.06s.58.9,1.3,1.25l.63.31c1.35.67,2.07,1.41,2.07,2.9Z"/>
      <path class="cls-1" d="M160.6,37.44h5.28v2.08h-3.15v2.04h3.15v1.94h-3.15v2.05h3.15v2.08h-5.28v-10.2Z"/>
      <path class="cls-1" d="M166.66,42.6c0-3.1,2.16-5.33,5.44-5.33,1.47,0,2.83.41,3.41.96v2.48c-.74-.8-2.03-1.36-3.45-1.36-2.08,0-3.21,1.38-3.21,3.24,0,1.98,1.33,3.15,3.15,3.15.76,0,1.31-.15,1.79-.48v-3.4h2.07v4.63c-.98.87-2.49,1.31-3.88,1.31-3.16,0-5.32-2.14-5.32-5.2Z"/>
      <path class="cls-1" d="M180.47,47.8c-2.13,0-3.69-1.14-3.69-3.37v-6.99h2.13v6.78c0,1.08.67,1.6,1.56,1.6s1.54-.52,1.54-1.52v-6.86h2.11v6.89c0,2.29-1.53,3.47-3.66,3.47Z"/>
      <path class="cls-1" d="M185.12,37.44h2.21c2.48,0,3.63,1.14,3.63,3.04,0,1.27-.71,2.14-1.53,2.48l2.23,4.68h-2.33l-1.95-4.46h-.13v4.46h-2.13v-10.2ZM187.5,41.83c.8,0,1.33-.38,1.33-1.28,0-1.11-.83-1.21-1.4-1.21h-.17v2.49h.25Z"/>
      <path class="cls-1" d="M191.59,42.61c0-3.54,2.62-5.33,5.22-5.33,2.84,0,5.14,1.91,5.14,5.27,0,3.15-2.35,5.25-5.14,5.25s-5.22-2.11-5.22-5.19ZM196.81,45.7c1.88,0,2.97-1.5,2.97-3.18s-1.05-3.15-3-3.15c-1.84,0-3.02,1.4-3.02,3.15s1.11,3.18,3.04,3.18Z"/>
    </g>
    <g>
      <path class="cls-1" d="M102.63,92.06c0-3.12,2.23-5.32,5.33-5.32,1.22,0,2.49.41,3.22,1.14v1.43c-.86-.99-2.14-1.49-3.28-1.49-2.48,0-4.14,1.71-4.14,4.21,0,2.38,1.71,4.12,4.17,4.12,1.3,0,2.77-.57,3.44-1.71v1.46c-1.05.95-2.33,1.33-3.44,1.33-3.05,0-5.3-2.16-5.3-5.17Z"/>
      <path class="cls-1" d="M112.61,86.89h1.05v9.15h2.64v1.05h-3.69v-10.2Z"/>
      <path class="cls-1" d="M117.56,86.89h1.05v10.2h-1.05v-10.2Z"/>
      <path class="cls-1" d="M125.99,97.7c-.61-.23-1.17-.47-1.88-.47-.84,0-1.44.39-2.03.8v-.95c.09-.1.26-.22.5-.33-1.68-.8-2.87-2.48-2.87-4.74,0-3.35,2.46-5.28,5.1-5.28,2.77,0,5.04,1.97,5.04,5.25,0,2.24-1.18,4.07-3,4.85.35.13.77.23,1.24.23.5,0,.98-.1,1.47-.31v1.09c-.5.16-.99.25-1.47.25-.88,0-1.52-.2-2.1-.41ZM124.83,96.16c2.45,0,3.91-2,3.91-4.18s-1.43-4.15-3.95-4.15c-2.32,0-3.99,1.84-3.99,4.15,0,2.19,1.52,4.18,4.04,4.18Z"/>
      <path class="cls-1" d="M134.12,97.24c-1.84,0-3.21-1.05-3.21-3.1v-7.24h1.05v7.18c0,1.47.95,2.16,2.16,2.16s2.16-.69,2.16-2.11v-7.23h1.05v7.14c0,2.11-1.37,3.21-3.21,3.21Z"/>
      <path class="cls-1" d="M138.69,86.89h4.27v1.05h-3.22v3.51h3.22v1.05h-3.22v3.54h3.22v1.05h-4.27v-10.2Z"/>
      <path class="cls-1" d="M146.82,86.89h1.31c2.04,0,2.92.99,2.92,2.7,0,1.82-1.06,2.81-2.92,2.81h-.26v4.69h-1.05v-10.2ZM148.25,91.36c.95,0,1.69-.47,1.69-1.78,0-1.52-1.06-1.65-1.81-1.65h-.26v3.42h.38Z"/>
      <path class="cls-1" d="M153.68,86.89h1.53l2.94,10.2h-1.04l-.99-3.44h-3.42l-.99,3.44h-1.03l3-10.2ZM155.82,92.62l-1.4-4.87-1.41,4.87h2.81Z"/>
      <path class="cls-1" d="M159.1,86.89h1.31c2.04,0,2.92.99,2.92,2.7,0,1.41-.64,2.29-1.79,2.62l2.84,4.88h-1.2l-2.87-5.04h-.16v5.04h-1.05v-10.2ZM160.52,91.36c.95,0,1.69-.47,1.69-1.78,0-1.52-1.06-1.65-1.81-1.65h-.26v3.42h.38Z"/>
      <path class="cls-1" d="M167.75,86.89h1.53l2.94,10.2h-1.04l-.99-3.44h-3.42l-.99,3.44h-1.03l3-10.2ZM169.89,92.62l-1.4-4.87-1.41,4.87h2.81Z"/>
      <path class="cls-1" d="M175.23,86.89h1.05l2.59,8.89,2.52-8.89h1.06l-2.93,10.2h-1.34l-2.96-10.2Z"/>
      <path class="cls-1" d="M183.43,86.89h4.27v1.05h-3.22v3.51h3.22v1.05h-3.22v3.54h3.22v1.05h-4.27v-10.2Z"/>
      <path class="cls-1" d="M189.09,86.89h1.31c2.04,0,2.92.99,2.92,2.7,0,1.41-.64,2.29-1.79,2.62l2.84,4.88h-1.2l-2.87-5.04h-.16v5.04h-1.05v-10.2ZM190.51,91.36c.95,0,1.69-.47,1.69-1.78,0-1.52-1.06-1.65-1.81-1.65h-.26v3.42h.38Z"/>
      <path class="cls-1" d="M194.92,86.89h1.05v10.2h-1.05v-10.2Z"/>
      <path class="cls-1" d="M197.39,86.89h3.83v1.05h-2.78v3.51h2.78v1.05h-2.78v4.59h-1.05v-10.2Z"/>
      <path class="cls-1" d="M202.57,86.89h1.05v10.2h-1.05v-10.2Z"/>
      <path class="cls-1" d="M204.71,92.06c0-3.12,2.23-5.32,5.33-5.32,1.22,0,2.49.41,3.22,1.14v1.43c-.86-.99-2.14-1.49-3.28-1.49-2.48,0-4.14,1.71-4.14,4.21,0,2.38,1.71,4.12,4.17,4.12,1.3,0,2.77-.57,3.44-1.71v1.46c-1.05.95-2.33,1.33-3.44,1.33-3.04,0-5.3-2.16-5.3-5.17Z"/>
      <path class="cls-1" d="M217.05,86.89h1.53l2.94,10.2h-1.04l-.99-3.44h-3.42l-.99,3.44h-1.03l3-10.2ZM219.19,92.62l-1.4-4.87-1.41,4.87h2.81Z"/>
      <path class="cls-1" d="M222.47,86.89h1.31c2.04,0,2.92.99,2.92,2.7,0,1.41-.64,2.29-1.79,2.62l2.84,4.88h-1.2l-2.87-5.04h-.16v5.04h-1.05v-10.2ZM223.9,91.36c.95,0,1.69-.47,1.69-1.78,0-1.52-1.06-1.65-1.81-1.65h-.26v3.42h.38Z"/>
    </g>
  </g>
</svg>