<?xml version="1.0" encoding="UTF-8"?>
<svg id="Layer_1" data-name="Layer 1" xmlns="http://www.w3.org/2000/svg" viewBox="0 0 256 128">
  <defs>
    <style>
      .cls-1 {
        letter-spacing: -.01em;
      }

      .cls-2 {
        letter-spacing: 0em;
      }

      .cls-3 {
        letter-spacing: -.04em;
      }

      .cls-4 {
        font-family: Parafina-BoldS, Parafina;
        font-size: 30.9px;
        font-weight: 700;
      }

      .cls-4, .cls-5 {
        fill: #2e2d3b;
      }
    </style>
  </defs>
  <path class="cls-5" d="M236.88,124H19.12c-8.34,0-15.12-6.78-15.12-15.12V19.12c0-8.34,6.78-15.12,15.12-15.12h217.76c8.34,0,15.12,6.78,15.12,15.12v89.76c0,8.34-6.78,15.12-15.12,15.12ZM19.12,6c-7.23,0-13.12,5.88-13.12,13.12v89.76c0,7.23,5.88,13.12,13.12,13.12h217.76c7.23,0,13.12-5.88,13.12-13.12V19.12c0-7.23-5.88-13.12-13.12-13.12H19.12Z"/>
  <g>
    <g>
      <text class="cls-4" transform="translate(78.09 57.19)"><tspan x="0" y="0">SITE SEGU</tspan><tspan class="cls-3" x="120.38" y="0">R</tspan><tspan class="cls-2" x="134.53" y="0">O</tspan></text>
      <text class="cls-4" transform="translate(81.89 90.62)"><tspan x="0" y="0">SSL 256 BI</tspan><tspan class="cls-1" x="121.95" y="0">T</tspan><tspan x="135.76" y="0">S</tspan></text>
    </g>
    <g>
      <path class="cls-5" d="M66.61,57.91H23.81c-2.08,0-3.76,1.69-3.76,3.76v28.1c0,2.08,1.68,3.76,3.76,3.76h42.8c2.08,0,3.76-1.68,3.76-3.76v-28.1c0-2.07-1.68-3.76-3.76-3.76ZM47.18,78.94v5.4h-3.54v-5.4c-2.46-.76-4.25-3.06-4.25-5.77,0-3.33,2.69-6.03,6.02-6.03s6.03,2.7,6.03,6.03c0,2.71-1.79,5.01-4.25,5.77Z"/>
      <path class="cls-5" d="M61.6,57.95l-8.66-.09.02-1.54c.03-1.97.05-3.83-.01-5.7-.48-3.98-3.66-7.17-7.45-7.46-4.25-.33-8.11,2.98-8.72,7.4v7.34h-8.66l.03-8.09c1.02-9.11,9.13-15.97,18.02-15.29,8.06.61,14.55,7.06,15.42,15.32l.02.29c.08,2.14.05,4.26.02,6.31l-.02,1.51Z"/>
    </g>
  </g>
</svg>