<?xml version="1.0" encoding="UTF-8"?>
<svg id="Layer_1" data-name="Layer 1" xmlns="http://www.w3.org/2000/svg" viewBox="0 0 256 128">
  <defs>
    <style>
      .cls-1 {
        fill: #2e2d3b;
      }
    </style>
  </defs>
  <path class="cls-1" d="M236.88,124H19.12c-8.34,0-15.12-6.78-15.12-15.12V19.12c0-8.34,6.78-15.12,15.12-15.12h217.76c8.34,0,15.12,6.78,15.12,15.12v89.76c0,8.34-6.78,15.12-15.12,15.12ZM19.12,6c-7.23,0-13.12,5.88-13.12,13.12v89.76c0,7.23,5.88,13.12,13.12,13.12h217.76c7.23,0,13.12-5.88,13.12-13.12V19.12c0-7.23-5.88-13.12-13.12-13.12H19.12Z"/>
  <g>
    <g>
      <g>
        <path class="cls-1" d="M91.75,50.95c0,3.65-2.41,6.58-6.71,6.58-2.5,0-4.54-.77-5.9-2.07v-5.44c1.54,2.32,3.46,3.49,5.87,3.49,1.61,0,2.47-.83,2.47-2.32,0-1.3-1.27-1.92-2.53-2.5l-1.7-.77c-2.87-1.3-4.33-2.75-4.33-5.99,0-4.02,2.94-6.71,6.86-6.71,2.72,0,4.7.9,5.34,1.42v5.1c-1.08-1.45-3-2.5-5.16-2.5-1.64,0-2.69,1.02-2.69,2.26,0,1.3,1.24,1.92,2.75,2.66l1.33.65c2.87,1.42,4.39,3,4.39,6.15Z"/>
        <path class="cls-1" d="M93.7,35.56h4.51v21.63h-4.51v-21.63Z"/>
        <path class="cls-1" d="M104.14,39.98h-4.14v-4.42h12.76v4.42h-4.11v17.21h-4.51v-17.21Z"/>
        <path class="cls-1" d="M114.55,35.56h11.19v4.42h-6.67v4.33h6.67v4.11h-6.67v4.36h6.67v4.42h-11.19v-21.63Z"/>
        <path class="cls-1" d="M145.64,50.95c0,3.65-2.41,6.58-6.71,6.58-2.5,0-4.54-.77-5.9-2.07v-5.44c1.54,2.32,3.46,3.49,5.87,3.49,1.61,0,2.47-.83,2.47-2.32,0-1.3-1.27-1.92-2.53-2.5l-1.7-.77c-2.87-1.3-4.33-2.75-4.33-5.99,0-4.02,2.94-6.71,6.86-6.71,2.72,0,4.7.9,5.34,1.42v5.1c-1.08-1.45-3-2.5-5.16-2.5-1.64,0-2.69,1.02-2.69,2.26,0,1.3,1.24,1.92,2.75,2.66l1.33.65c2.87,1.42,4.39,3,4.39,6.15Z"/>
        <path class="cls-1" d="M147.58,35.56h11.19v4.42h-6.67v4.33h6.67v4.11h-6.67v4.36h6.67v4.42h-11.19v-21.63Z"/>
        <path class="cls-1" d="M160.44,46.5c0-6.58,4.57-11.31,11.53-11.31,3.12,0,5.99.87,7.23,2.04v5.25c-1.58-1.7-4.29-2.87-7.32-2.87-4.42,0-6.8,2.94-6.8,6.86,0,4.2,2.81,6.67,6.67,6.67,1.61,0,2.78-.31,3.8-1.02v-7.2h4.39v9.83c-2.07,1.85-5.28,2.78-8.22,2.78-6.71,0-11.28-4.54-11.28-11.03Z"/>
        <path class="cls-1" d="M189.73,57.53c-4.51,0-7.82-2.41-7.82-7.14v-14.83h4.51v14.37c0,2.29,1.42,3.4,3.31,3.4s3.27-1.11,3.27-3.21v-14.55h4.48v14.62c0,4.85-3.24,7.35-7.75,7.35Z"/>
        <path class="cls-1" d="M199.58,35.56h4.7c5.25,0,7.69,2.41,7.69,6.46,0,2.69-1.51,4.54-3.24,5.25l4.73,9.92h-4.94l-4.14-9.46h-.28v9.46h-4.51v-21.63ZM204.62,44.86c1.7,0,2.81-.8,2.81-2.72,0-2.35-1.76-2.56-2.97-2.56h-.37v5.28h.52Z"/>
        <path class="cls-1" d="M213.3,46.53c0-7.51,5.56-11.31,11.06-11.31,6.03,0,10.91,4.05,10.91,11.18,0,6.67-4.98,11.12-10.91,11.12s-11.06-4.48-11.06-11ZM224.36,53.08c3.99,0,6.3-3.18,6.3-6.74s-2.22-6.67-6.37-6.67c-3.89,0-6.4,2.97-6.4,6.67s2.35,6.74,6.46,6.74Z"/>
      </g>
      <g>
        <path class="cls-1" d="M95.55,84.38c0,3.65-2.41,6.58-6.71,6.58-2.5,0-4.54-.77-5.9-2.07v-5.44c1.54,2.32,3.46,3.49,5.87,3.49,1.61,0,2.47-.83,2.47-2.32,0-1.3-1.27-1.92-2.53-2.5l-1.7-.77c-2.87-1.3-4.33-2.75-4.33-5.99,0-4.02,2.94-6.71,6.86-6.71,2.72,0,4.7.9,5.34,1.42v5.1c-1.08-1.45-3-2.5-5.16-2.5-1.64,0-2.69,1.02-2.69,2.26,0,1.3,1.24,1.92,2.75,2.66l1.33.65c2.87,1.42,4.39,3,4.39,6.15Z"/>
        <path class="cls-1" d="M110.04,84.38c0,3.65-2.41,6.58-6.71,6.58-2.5,0-4.54-.77-5.9-2.07v-5.44c1.54,2.32,3.46,3.49,5.87,3.49,1.61,0,2.47-.83,2.47-2.32,0-1.3-1.27-1.92-2.53-2.5l-1.7-.77c-2.87-1.3-4.33-2.75-4.33-5.99,0-4.02,2.94-6.71,6.86-6.71,2.72,0,4.7.9,5.34,1.42v5.1c-1.08-1.45-3-2.5-5.16-2.5-1.64,0-2.69,1.02-2.69,2.26,0,1.3,1.24,1.92,2.75,2.66l1.33.65c2.87,1.42,4.39,3,4.39,6.15Z"/>
        <path class="cls-1" d="M111.99,68.99h4.51v17.21h5.68v4.42h-10.2v-21.63Z"/>
        <path class="cls-1" d="M129.76,87.19l3-3.62c3.34-4.02,5.19-6.67,5.19-8.37,0-1.27-.56-2.56-2.35-2.56-2.13,0-2.35,1.95-2.35,3.71h-4.02c0-4.73,2.29-7.69,6.52-7.69s6.4,2.72,6.4,6.12-1.54,5.16-5.59,10.1l-1.42,1.73h7.04v4.02h-12.42v-3.43Z"/>
        <path class="cls-1" d="M144.15,86.63l3.4-2.1c.83,1.58,2.1,2.63,3.96,2.63,1.98,0,3.62-1.54,3.62-3.83,0-2.01-1.14-3.65-3.58-3.65-1.33,0-2.53.68-3.37,2.16h-3.03v-12.85h12.64v3.8h-8.81v4.48c.87-.56,1.92-.93,3.4-.93,4.48,0,7.04,3.12,7.04,6.95,0,5.01-3.65,7.66-7.72,7.66-3.46,0-6.27-1.51-7.54-4.33Z"/>
        <path class="cls-1" d="M161.15,83.6c0-3.4,2.53-6.92,4.6-9.55l3.99-5.07h4.76l-6.12,7.6c.34-.06.59-.06.9-.06,4.82,0,7.35,3.18,7.35,6.89,0,4.39-3.21,7.54-7.57,7.54-4.57,0-7.91-2.72-7.91-7.35ZM168.93,87.28c2.44,0,3.68-1.85,3.68-3.74s-1.21-3.71-3.71-3.71c-2.16,0-3.74,1.39-3.74,3.74,0,1.98,1.27,3.71,3.77,3.71Z"/>
        <path class="cls-1" d="M183.86,68.99h5.56c3.99,0,6.58,1.85,6.58,5.59,0,2.32-1.21,4.29-3.09,5.07,2.04.62,3.52,2.29,3.52,5.07,0,3.96-3.03,5.9-6.71,5.9h-5.87v-21.63ZM189.08,78.04c1.54,0,2.5-.96,2.5-2.87,0-1.73-1.02-2.38-2.6-2.38h-.62v5.25h.71ZM188.99,86.82c1.67,0,2.91-.68,2.91-2.75,0-1.79-1.08-2.69-2.81-2.69h-.71v5.44h.62Z"/>
        <path class="cls-1" d="M198.22,68.99h4.51v21.63h-4.51v-21.63Z"/>
        <path class="cls-1" d="M208.67,73.41h-4.14v-4.42h12.76v4.42h-4.11v17.21h-4.51v-17.21Z"/>
        <path class="cls-1" d="M231.32,84.38c0,3.65-2.41,6.58-6.71,6.58-2.5,0-4.54-.77-5.9-2.07v-5.44c1.54,2.32,3.46,3.49,5.87,3.49,1.61,0,2.47-.83,2.47-2.32,0-1.3-1.27-1.92-2.53-2.5l-1.7-.77c-2.87-1.3-4.33-2.75-4.33-5.99,0-4.02,2.94-6.71,6.86-6.71,2.72,0,4.7.9,5.34,1.42v5.1c-1.08-1.45-3-2.5-5.16-2.5-1.64,0-2.69,1.02-2.69,2.26,0,1.3,1.24,1.92,2.75,2.66l1.33.65c2.87,1.42,4.39,3,4.39,6.15Z"/>
      </g>
    </g>
    <g>
      <path class="cls-1" d="M66.61,57.91H23.81c-2.08,0-3.76,1.69-3.76,3.76v28.1c0,2.08,1.68,3.76,3.76,3.76h42.8c2.08,0,3.76-1.68,3.76-3.76v-28.1c0-2.07-1.68-3.76-3.76-3.76ZM47.18,78.94v5.4h-3.54v-5.4c-2.46-.76-4.25-3.06-4.25-5.77,0-3.33,2.69-6.03,6.02-6.03s6.03,2.7,6.03,6.03c0,2.71-1.79,5.01-4.25,5.77Z"/>
      <path class="cls-1" d="M61.6,57.95l-8.66-.09.02-1.54c.03-1.97.05-3.83-.01-5.7-.48-3.98-3.66-7.17-7.45-7.46-4.25-.33-8.11,2.98-8.72,7.4v7.34h-8.66l.03-8.09c1.02-9.11,9.13-15.97,18.02-15.29,8.06.61,14.55,7.06,15.42,15.32l.02.29c.08,2.14.05,4.26.02,6.31l-.02,1.51Z"/>
    </g>
  </g>
</svg>