<?xml version="1.0" encoding="UTF-8"?>
<svg id="Layer_1" data-name="Layer 1" xmlns="http://www.w3.org/2000/svg" viewBox="0 0 256 128">
  <defs>
    <style>
      .cls-1 {
        font-family: Parafina-RegularS, Parafina;
        font-size: 22.09px;
      }

      .cls-1, .cls-2, .cls-3 {
        fill: #2e2d3b;
      }

      .cls-2 {
        fill-rule: evenodd;
      }

      .cls-4 {
        letter-spacing: .39em;
      }

      .cls-5 {
        letter-spacing: .41em;
      }

      .cls-6 {
        letter-spacing: .41em;
      }
    </style>
  </defs>
  <path class="cls-2" d="M102.9,22.32c2.6,0,5.19,0,7.77.03l10.38,20.02v-20.05h6.23v31.73h-6.84s-11.31-22.53-11.31-22.53v22.53h-6.23v-31.73Z"/>
  <path class="cls-2" d="M197.5,30.03c6.73,0,12.18,5.46,12.18,12.18s-5.46,12.19-12.18,12.19-12.19-5.46-12.19-12.19,5.46-12.18,12.19-12.18h0ZM197.5,36.17c3.34,0,6.05,2.71,6.05,6.05s-2.71,6.06-6.05,6.06-6.06-2.71-6.06-6.06,2.71-6.05,6.06-6.05h0Z"/>
  <path class="cls-2" d="M141.4,30.03c6.73,0,12.18,5.46,12.18,12.18s-5.46,12.19-12.18,12.19-12.19-5.46-12.19-12.19,5.46-12.18,12.19-12.18h0ZM141.4,36.17c3.34,0,6.05,2.71,6.05,6.05s-2.71,6.06-6.05,6.06-6.06-2.71-6.06-6.06,2.71-6.05,6.06-6.05h0Z"/>
  <path class="cls-2" d="M155.59,30.74v23.31h6.92v-10.99c0-.97.15-1.57.47-2.5.64-1.87,1.71-3.46,3.58-4.54.96-.55,1.06-.55,2.12-.55h4.36v12.62c.22,6.93,7.34,7.11,12.54,5.7-.3-1.55-.58-3.1-.88-4.64-2.97.69-5.09.89-5.09-2.84v-10.84h5v-4.91h-4.82v-6.58h-5.52c-.53,2.19-1.06,4.38-1.58,6.58h-3.83c-1.67,0-3.13.44-4.53,1.41-1.2.83-2.13,2.02-2.69,3.67-.67-1.6-1.34-3.21-2.01-4.82-1.34-.03-2.68-.05-4.03-.08h0Z"/>
  <path class="cls-2" d="M211.4,30.61v23.54h6.57v-15.57c0-2.18,5.25-4.13,7.44-1.46.57.71.52.89.52,1.74v15.17h6.69v-16.22c0-1.84-.89-3.64-2.02-5.07-1.65-2.09-4.03-3.03-7.47-2.39-2.33.43-4.17,1.76-6.32,3.92-.47-1.2-.93-2.41-1.4-3.61-1.33-.02-2.67-.04-4.01-.06h0Z"/>
  <path class="cls-3" d="M233.91,50.1h.8v-.55h-2.14v.55h.8v2.53h.55v-2.53ZM237.54,49.56h-.79l-.47,2.42h0l-.47-2.42h-.81v3.08h.51v-2.57h0l.48,2.57h.54l.48-2.57h0v2.57h.51v-3.08Z"/>
  <path class="cls-3" d="M82.37,42.24h-.99v3.27h-2.14v2.71s-2.64,0-2.64,0v3h-1.94c2.98,4.2,4.58,9.2,4.58,14.45,0,6.7-2.61,13-7.34,17.74-4.75,4.73-11.05,7.35-17.75,7.35s-13-2.62-17.74-7.35c-4.73-4.74-7.34-11.04-7.34-17.74s2.61-13,7.34-17.74c4.75-4.73,11.05-7.34,17.74-7.34,5.16,0,10.08,1.55,14.23,4.42v-2.17h2.7v-4.18h2.83v-2.39h2.17c-6.12-4.57-13.71-7.29-21.93-7.29-20.22,0-36.69,16.47-36.69,36.69s16.47,36.7,36.69,36.7,36.7-16.46,36.7-36.7c0-8.9-3.18-17.07-8.48-23.43ZM73.89,45.48v2.74h2.71v-2.74h-2.71ZM76.59,41.32v-2.66h-2.68v2.66h2.68Z"/>
  <rect class="cls-3" x="94.13" y="23.34" width="2.86" height="2.85"/>
  <rect class="cls-3" x="94.13" y="17.63" width="2.86" height="2.86"/>
  <rect class="cls-3" x="86.08" y="26.17" width="2.67" height="2.79"/>
  <rect class="cls-3" x="80.78" y="31.66" width="2.69" height="2.67"/>
  <rect class="cls-3" x="88.75" y="28.96" width="3" height="2.69"/>
  <rect class="cls-3" x="78.1" y="29.1" width="2.68" height="2.56"/>
  <rect class="cls-3" x="86.08" y="31.66" width="2.67" height="2.67"/>
  <rect class="cls-3" x="91.3" y="20.49" width="2.83" height="2.84"/>
  <rect class="cls-3" x="86.08" y="23.34" width="5.22" height="2.84"/>
  <rect class="cls-3" x="83.48" y="26.17" width="2.6" height="5.48"/>
  <path class="cls-3" d="M71.9,47.93c1.02,1.03,1.95,2.13,2.76,3.29h-.75v3.13h-2.24v2.69h-2.14v2.98c-4,5.76-7.38,12.77-9.71,19.03-1.1,2.94-6.56,2.49-7.78-.41-2.3-5.5-4.69-12.4-12.26-20.72-3.3-3.4-.91-5.57,1.09-4.97,3.67,1.2,8.34,4.52,14.36,12.9,1.68-4.17,7.2-14.38,9.41-17.66h1.95v-2.68h1.79v-.5c1.25.86,2.42,1.83,3.52,2.92Z"/>
  <path class="cls-3" d="M86.08,34.33v5.67h-2.31v2.24h-1.4c-1.85-2.23-3.96-4.23-6.29-5.97h.23v-1.94h4.47v2.69h2.7v-2.69h2.6Z"/>
  <path class="cls-3" d="M133.29,94.73l-.75,1.2c.58.45,1.4.93,2.42,1.28.89.3,1.93.5,3.1.5,1.84,0,3.28-.46,4.26-1.25,1-.82,1.53-2.01,1.53-3.43,0-1.51-.56-2.54-1.46-3.33-.92-.81-2.22-1.37-3.66-1.91h0c-1.32-.48-2.25-.91-2.85-1.43-.64-.55-.93-1.2-.93-2.08s.25-1.57.84-2.07c.57-.48,1.45-.75,2.73-.75,1.04,0,1.89.16,2.59.39.56.18,1.03.41,1.42.62l.6-1.31c-.55-.3-1.12-.56-1.79-.75-.77-.22-1.69-.36-2.9-.36-1.71,0-2.99.42-3.85,1.13-.92.75-1.38,1.84-1.38,3.1,0,1.46.5,2.46,1.32,3.22.84.78,2.02,1.32,3.34,1.83,1.28.5,2.29.93,2.99,1.48.74.59,1.14,1.31,1.14,2.37,0,.98-.38,1.75-1.06,2.27-.68.53-1.65.8-2.84.8s-2.1-.21-2.93-.55c-.72-.28-1.33-.64-1.87-.99h0Z"/>
  <path class="cls-3" d="M144.96,85.21h1.87l3.35,10.87,3.21-10.87h1.81l-4.37,13.78c-.7,2.25-1.89,3.44-4.13,3.44-.46,0-.98-.11-1.36-.23l.22-1.36c.28.04.61.13,1.01.13,1.51,0,2.4-.9,2.83-2.37l-4.45-13.37Z"/>
  <path class="cls-3" d="M170.52,84.99c2.5,0,3.13,2.09,3.13,4.13v8.7h-1.82v-8.68c0-1.34-.21-2.6-1.87-2.6-1.14,0-2.32.71-3.51,1.92v9.36h-1.82v-8.68c0-1.34-.2-2.6-1.87-2.6-1.16,0-2.37.81-3.51,1.95v9.33h-1.82v-12.61h1.04l.53,2.07c1.16-1.23,2.59-2.29,4.31-2.29s2.35.9,2.85,2.22c1.19-1.29,2.7-2.22,4.34-2.22h0Z"/>
  <path class="cls-3" d="M183.98,91.15c-2.75.53-4.56,1.11-5.24,1.97-.33.4-.43.78-.43,1.36,0,1.29.63,2.07,2.14,2.07s2.67-.75,3.53-1.41v-3.98ZM183.98,89.3c0-1.84-.55-2.78-2.55-2.78-1.29,0-2.44.54-3.58,1.14l-.68-1.23c1.18-.81,2.54-1.43,4.41-1.43,3.06,0,4.21,1.69,4.21,4.44v8.4h-1.03s-.54-1.54-.55-1.54c-.89.89-2.3,1.74-3.94,1.74-2.19,0-3.81-1.39-3.81-3.46,0-1.39.55-2.37,1.76-3.08,1.16-.68,3.26-1.18,5.75-1.57v-.63h0Z"/>
  <path class="cls-3" d="M189.84,85.21h1.04l.53,2.15c1.16-1.32,2.65-2.37,4.56-2.37,2.68,0,3.38,2.09,3.38,4.13v8.7h-1.81v-8.68c0-1.34-.31-2.6-2.12-2.6-1.29,0-2.63.81-3.77,2.02v9.26h-1.82v-12.61Z"/>
  <path class="cls-3" d="M201.86,86.52v-1.31h1.95l.53-3.61h1.23v3.61h2.83v1.31h-2.83v8.2c0,1.22.21,1.9,1.41,1.9.53,0,.89-.1,1.47-.26l.27,1.26c-.47.23-1.15.41-1.82.41-2.22,0-3.15-1.11-3.15-3.18v-8.33h-1.9Z"/>
  <path class="cls-3" d="M218.33,90.72c-.1-2.87-1.06-4.34-2.95-4.34-1.71,0-2.9,1.36-3.05,4.34h6ZM215.68,96.57c1.47,0,2.38-.53,3.46-1.26l.78,1.06c-1.21,1.04-2.32,1.67-4.39,1.67-3.15,0-5.14-2.52-5.14-6.51s1.97-6.53,4.97-6.53,4.84,2.26,4.84,6.63v.4h-7.9c.13,2.95,1.11,4.54,3.38,4.54h0Z"/>
  <path class="cls-3" d="M222.43,91.62c0-3.1,1.26-6.63,5.13-6.63,1.61,0,2.83.45,3.86,1.31l-.75,1.22c-.79-.61-1.87-1.06-3.1-1.06-2.88,0-3.2,3.05-3.2,5.2,0,2.02.4,4.92,3.3,4.92,1.34,0,2.27-.5,3.13-1.26l.86,1.04c-.86.9-2.17,1.69-4.09,1.69-3.76,0-5.13-3.38-5.13-6.41h0Z"/>
  <path class="cls-3" d="M114.77,85.21h1.87l3.35,10.87,3.21-10.87h1.81l-4.37,13.78c-.7,2.25-1.89,3.44-4.13,3.44-.46,0-.98-.11-1.36-.23l.22-1.36c.28.04.61.13,1.01.13,1.51,0,2.4-.9,2.83-2.37l-4.45-13.37Z"/>
  <path class="cls-3" d="M111.36,90.14c.04.26.05.53.07.79.02.28.03.55.03.8,0,.17,0,.33-.02.49,0,.16-.02.31-.04.47-.02.16-.04.3-.07.46-.03.14-.06.3-.1.43-.04.14-.08.28-.13.41-.04.13-.09.26-.15.38-.05.13-.11.24-.17.35-.07.12-.13.22-.21.32h0c-.07.11-.14.2-.22.29-.09.1-.17.18-.27.26-.09.08-.19.15-.29.22-.1.06-.2.13-.31.18h0c-.1.05-.21.11-.33.15-.12.04-.24.07-.37.1s-.25.05-.38.06c-.13.02-.28.03-.41.03-.1,0-.19,0-.29,0-.09,0-.18-.02-.27-.04-.08-.02-.17-.04-.25-.05h0c-.07-.02-.13-.04-.2-.05h-.02s-.03-.02-.03-.02c-.08-.03-.16-.06-.23-.09-.08-.03-.15-.06-.22-.1h0c-.07-.03-.14-.06-.21-.11-.07-.04-.13-.07-.2-.11h0s0,0,0,0h0c-.06-.04-.12-.08-.18-.12-.05-.04-.12-.09-.17-.13h0c-.05-.04-.11-.09-.16-.13-.04-.04-.1-.09-.14-.14-.04-.04-.09-.09-.13-.13-.04-.04-.08-.09-.12-.13-.04-.04-.07-.09-.11-.13-.04-.04-.06-.08-.09-.13h0s0-.02,0-.02h0v-6.54h0s0-.02,0-.02l.02-.02c.1-.1.2-.19.31-.28.11-.09.21-.17.33-.25h0c.11-.08.22-.16.35-.22.12-.07.24-.14.38-.21.13-.06.26-.12.39-.16.14-.04.28-.08.42-.12.13-.03.28-.05.42-.07.14,0,.3-.02.44-.02.1,0,.19,0,.29,0s.2.02.3.04c.1.02.19.04.29.06.1.02.2.04.3.08.1.03.19.06.29.11.09.04.19.1.28.15.09.05.19.12.27.19.09.07.18.14.27.22.08.09.16.18.24.28.08.1.15.2.22.31s.13.23.2.37c.06.13.12.26.17.4.05.13.1.3.13.48.04.2.07.42.1.65h0ZM113.16,93.07c.04-.23.06-.47.08-.72s.03-.51.03-.78c0-.21,0-.46-.02-.71,0-.23-.03-.48-.05-.72-.02-.21-.04-.43-.07-.62-.03-.18-.05-.33-.09-.46-.04-.15-.07-.3-.12-.43-.04-.13-.1-.27-.14-.39-.05-.13-.11-.25-.16-.37-.06-.12-.13-.23-.19-.33-.06-.11-.13-.21-.2-.31-.07-.1-.13-.19-.21-.28-.07-.09-.14-.17-.22-.25-.08-.08-.16-.16-.24-.23s-.17-.13-.25-.21c-.09-.06-.18-.13-.26-.18-.09-.06-.18-.12-.27-.16h0c-.09-.05-.18-.1-.27-.14-.09-.04-.18-.09-.27-.13-.09-.04-.18-.07-.28-.1-.09-.04-.18-.06-.27-.09-.1-.02-.19-.04-.28-.06-.09-.02-.19-.03-.28-.04-.09,0-.17-.03-.26-.04-.08,0-.17,0-.25-.02h-.25c-.17,0-.34,0-.5.02-.17.02-.32.04-.48.07-.15.03-.3.06-.44.11-.15.04-.29.1-.42.16-.14.05-.27.13-.39.19-.13.07-.25.15-.37.23-.12.09-.23.18-.34.27-.12.1-.22.21-.32.31h0s0,.02,0,.02h-.14v-6.65h-1.74v17.41h1.3l.38-1.23h0v-.03s0-.03,0-.03h.13v.02s.02.02.02.02c.02.03.04.05.06.08h0s.04.06.07.1l.02.03h0s.04.05.07.08h0s.07.09.11.13c.04.04.08.09.13.13.04.04.09.08.14.13.05.04.11.09.16.13h0c.05.04.12.08.18.13h0c.06.04.13.08.2.12.07.04.14.08.22.12.08.04.16.07.25.11h0c.07.03.15.06.23.09h.04c.09.04.19.06.29.09.1.02.2.04.3.05.11.02.22.03.33.04.12,0,.23,0,.36,0,.16,0,.32,0,.48-.02.16-.02.31-.04.47-.07.15-.04.31-.07.47-.12.15-.04.3-.1.44-.16h.02c.15-.06.3-.13.44-.21.14-.07.28-.16.41-.25.13-.1.27-.2.39-.3.13-.12.24-.23.37-.36h0c.11-.13.22-.27.32-.4.11-.14.21-.3.3-.46.09-.16.18-.33.27-.51.08-.17.16-.36.23-.55.07-.19.13-.39.19-.61.05-.21.1-.43.13-.66h0Z"/>
  <path class="cls-3" d="M236.88,124H19.12c-8.34,0-15.12-6.78-15.12-15.12V19.12c0-8.34,6.78-15.12,15.12-15.12h217.76c8.34,0,15.12,6.78,15.12,15.12v89.76c0,8.34-6.78,15.12-15.12,15.12ZM19.12,6c-7.23,0-13.12,5.88-13.12,13.12v89.76c0,7.23,5.88,13.12,13.12,13.12h217.76c7.23,0,13.12-5.88,13.12-13.12V19.12c0-7.23-5.88-13.12-13.12-13.12H19.12Z"/>
  <text class="cls-1" transform="translate(102.9 75.46)"><tspan class="cls-5" x="0" y="0">S</tspan><tspan class="cls-6" x="18.97" y="0">E</tspan><tspan class="cls-5" x="36.62" y="0">CU</tspan><tspan class="cls-4" x="81.15" y="0">R</tspan><tspan class="cls-5" x="99.04" y="0">ED</tspan></text>
</svg>