<svg id="Layer_1" data-name="Layer 1" xmlns="http://www.w3.org/2000/svg" viewBox="0 0 420 40.32"><defs><style>.cls-1{fill:#181818;}</style></defs><g id="_1C_Primary_Logotype" data-name="1C Primary Logotype"><path id="S" class="cls-1" d="M391,35.53a4,4,0,0,1-1.61-3.23,3.94,3.94,0,0,1,4-3.95,4.14,4.14,0,0,1,2.45.78,16.45,16.45,0,0,0,10,3.51c3.5,0,5.62-1.4,5.62-3.68v-.11c0-2.18-1.34-3.29-7.85-5-7.85-2-12.92-4.18-12.92-11.92v-.11c0-7.07,5.68-11.75,13.64-11.75a22.65,22.65,0,0,1,12.36,3.45,4,4,0,0,1-2.11,7.36,4.1,4.1,0,0,1-2.17-.62,16.23,16.23,0,0,0-8.19-2.61c-3.29,0-5,1.5-5,3.39v.11c0,2.57,1.67,3.4,8.41,5.13C415.55,18.38,420,21.22,420,28v.11c0,7.75-5.9,12.09-14.31,12.09A25.17,25.17,0,0,1,391,35.53"/><path id="T" class="cls-1" d="M360.78,8.58h-8.25a4,4,0,0,1,0-7.91H377.6a4,4,0,0,1,0,7.91h-8.25V35.7a4.29,4.29,0,1,1-8.57,0Z"/><path id="E" class="cls-1" d="M309.45,35.36V5A4.25,4.25,0,0,1,313.74.67h21.61a3.85,3.85,0,0,1,3.84,3.84,3.8,3.8,0,0,1-3.84,3.79H318v7.91h14.87a3.84,3.84,0,0,1,3.84,3.84,3.8,3.8,0,0,1-3.84,3.78H318V32h17.65a3.85,3.85,0,0,1,3.84,3.85,3.8,3.8,0,0,1-3.84,3.78H313.74a4.25,4.25,0,0,1-4.29-4.29"/><path id="K" class="cls-1" d="M266,4.62a4.29,4.29,0,0,1,8.58,0V17.71L290.37,2A4.84,4.84,0,0,1,294,.33a3.87,3.87,0,0,1,3.95,4,4.29,4.29,0,0,1-1.56,3.23l-11,10.25,12,15a4.58,4.58,0,0,1,1.17,3A4.15,4.15,0,0,1,294.21,40a4.33,4.33,0,0,1-3.62-2.06l-11.14-14.6-4.9,4.57v7.8a4.29,4.29,0,0,1-8.58,0Z"/><path id="C" class="cls-1" d="M219.32,20.27v-.11A19.82,19.82,0,0,1,239.65,0c5.85,0,9.8,1.56,13,4a4.34,4.34,0,0,1,1.67,3.4,4.19,4.19,0,0,1-4.24,4.18,4.49,4.49,0,0,1-2.56-.84,12.84,12.84,0,0,0-8-2.78c-6.58,0-11.31,5.46-11.31,12.14v.11c0,6.68,4.62,12.25,11.31,12.25a12.49,12.49,0,0,0,8.46-3.06,4,4,0,0,1,6.57,3,4,4,0,0,1-1.45,3.06c-3.5,3.06-7.63,4.9-13.86,4.9a19.68,19.68,0,0,1-20-20"/><path id="O" class="cls-1" d="M201.11,20.27v-.11c0-6.68-4.9-12.25-11.81-12.25s-11.69,5.46-11.69,12.14v.11c0,6.68,4.9,12.25,11.81,12.25S201.11,27,201.11,20.27m-32.47,0v-.11C168.64,9.08,177.39,0,189.42,0s20.66,9,20.66,20.05v.11c0,11.08-8.75,20.16-20.78,20.16s-20.66-9-20.66-20"/><path id="O-2" data-name="O" class="cls-1" d="M71.21,20.27v-.11c0-6.68-4.9-12.25-11.81-12.25S47.7,13.37,47.7,20.05v.11c0,6.68,4.9,12.25,11.81,12.25S71.21,27,71.21,20.27m-32.47,0v-.11C38.74,9.08,47.48,0,59.51,0S80.17,9,80.17,20.05v.11c0,11.08-8.74,20.16-20.77,20.16s-20.66-9-20.66-20"/><path id="S-2" data-name="S" class="cls-1" d="M130.92,35.53a4,4,0,0,1-1.62-3.23,4,4,0,0,1,4-3.95,4.08,4.08,0,0,1,2.44.78,16.49,16.49,0,0,0,10,3.51c3.51,0,5.63-1.4,5.63-3.68v-.11c0-2.18-1.34-3.29-7.85-5-7.86-2-12.93-4.18-12.93-11.92v-.11c0-7.07,5.69-11.75,13.65-11.75A22.73,22.73,0,0,1,156.6,3.56a4,4,0,0,1-2.12,7.36,4.08,4.08,0,0,1-2.17-.62,16.23,16.23,0,0,0-8.19-2.61c-3.29,0-5,1.5-5,3.39v.11c0,2.57,1.67,3.4,8.41,5.13,7.9,2.06,12.36,4.9,12.36,11.69v.11c0,7.75-5.9,12.09-14.31,12.09a25.14,25.14,0,0,1-14.65-4.68"/><path id="P" class="cls-1" d="M104.72,20.33c4.29,0,6.8-2.57,6.8-5.91v-.11c0-3.84-2.68-5.9-7-5.9H97.93V20.33ZM89.35,5A4.25,4.25,0,0,1,93.64.67h11.64c9.3,0,14.92,5.51,14.92,13.47v.11c0,9-7,13.71-15.76,13.71H97.93V35.7a4.29,4.29,0,0,1-8.58,0Z"/><path id="P-2" data-name="P" class="cls-1" d="M15.37,20.33c4.29,0,6.8-2.57,6.8-5.91v-.11c0-3.84-2.68-5.9-7-5.9H8.58V20.33ZM0,5A4.25,4.25,0,0,1,4.29.67H15.93c9.3,0,14.92,5.51,14.92,13.47v.11c0,9-7,13.71-15.76,13.71H8.58V35.7A4.26,4.26,0,0,1,4.29,40,4.26,4.26,0,0,1,0,35.7Z"/></g></svg>