<svg xmlns="http://www.w3.org/2000/svg" xmlns:xlink="http://www.w3.org/1999/xlink" version="1.1" x="0px" y="0px" viewBox="0 0 420 41.28" style="enable-background:new 0 0 420 41.28;" xml:space="preserve" width="420"  height="41.28" >
<style type="text/css">
	.st0{fill:#181818;}
</style>
<g id="Layer_1">
</g>
<g id="ART">
	<g>
		<path class="st0" d="M62.06,33.77c-3.22,3.23-9.1,2.57-13.14-1.46c-4.03-4.03-4.68-9.91-1.46-13.14c3.22-3.23,9.1-2.57,13.14,1.46    C64.63,24.67,65.29,30.55,62.06,33.77 M64.98,16.26c-5.37-5.37-13.54-5.92-18.24-1.22c-4.7,4.7-4.16,12.87,1.22,18.24    c5.37,5.37,13.54,5.92,18.24,1.22C70.9,29.8,70.35,21.63,64.98,16.26 M53.31,27.94c-1.35-1.34-2.98-1.89-3.65-1.22    c-0.67,0.67-0.13,2.31,1.22,3.65c1.35,1.34,2.98,1.89,3.65,1.22C55.19,30.91,54.65,29.28,53.31,27.94 M56.71,24.53    c2.69,2.69,3.34,6.39,1.46,8.27c-1.88,1.88-5.58,1.23-8.27-1.46c-2.69-2.69-3.34-6.39-1.46-8.27    C50.32,21.19,54.02,21.85,56.71,24.53 M70.58,34.99c-6.32,6.32-16.88,5.99-23.59-0.73c-6.72-6.72-7.05-17.28-0.73-23.6    c6.31-6.31,16.88-5.99,23.59,0.73S76.89,28.68,70.58,34.99 M75.2,6.04c-8.06-8.06-21.13-8.06-29.19,0    c-8.06,8.06-8.06,21.13,0,29.19c8.06,8.06,21.13,8.06,29.19,0C83.26,27.17,83.26,14.1,75.2,6.04"/>
		<path class="st0" d="M15.23,20.64c4.25,0,6.73-2.54,6.73-5.85v-0.11c0-3.8-2.65-5.84-6.9-5.84H8.5v11.8H15.23z M0,5.41    c0-2.37,1.88-4.25,4.25-4.25h11.53c9.21,0,14.78,5.46,14.78,13.35v0.11c0,8.94-6.95,13.57-15.61,13.57H8.5v7.67    c0,2.37-1.87,4.25-4.25,4.25C1.88,40.11,0,38.24,0,35.87V5.41z"/>
		<path class="st0" d="M107.69,20.64c4.25,0,6.73-2.54,6.73-5.85v-0.11c0-3.8-2.65-5.84-6.9-5.84h-6.57v11.8H107.69z M92.47,5.41    c0-2.37,1.88-4.25,4.25-4.25h11.53c9.21,0,14.78,5.46,14.78,13.35v0.11c0,8.94-6.95,13.57-15.61,13.57h-6.45v7.67    c0,2.37-1.88,4.25-4.25,4.25c-2.37,0-4.25-1.88-4.25-4.25V5.41z"/>
		<path class="st0" d="M133.65,35.7c-0.94-0.66-1.6-1.88-1.6-3.2c0-2.21,1.77-3.92,3.97-3.92c1.1,0,1.87,0.39,2.43,0.77    c2.93,2.15,6.12,3.48,9.88,3.48c3.48,0,5.57-1.38,5.57-3.64v-0.11c0-2.15-1.32-3.25-7.78-4.91c-7.78-1.99-12.8-4.14-12.8-11.8    v-0.11c0-7.01,5.63-11.64,13.52-11.64c4.69,0,8.77,1.22,12.25,3.42c0.94,0.55,1.87,1.71,1.87,3.36c0,2.21-1.76,3.92-3.97,3.92    c-0.83,0-1.49-0.22-2.15-0.61c-2.82-1.66-5.46-2.59-8.11-2.59c-3.25,0-4.96,1.49-4.96,3.36v0.11c0,2.54,1.65,3.37,8.33,5.08    c7.83,2.04,12.25,4.85,12.25,11.59v0.11c0,7.67-5.84,11.97-14.18,11.97C143.08,40.33,137.95,38.79,133.65,35.7"/>
		<path class="st0" d="M203.18,20.58v-0.11c0-6.62-4.85-12.14-11.69-12.14c-6.84,0-11.59,5.41-11.59,12.03v0.11    c0,6.62,4.85,12.14,11.69,12.14C198.43,32.61,203.18,27.2,203.18,20.58 M171.01,20.58v-0.11c0-10.98,8.66-19.97,20.58-19.97    c11.92,0,20.47,8.88,20.47,19.86v0.11c0,10.98-8.66,19.97-20.58,19.97C179.56,40.44,171.01,31.56,171.01,20.58"/>
		<path class="st0" d="M221.22,20.58v-0.11c0-10.98,8.27-19.97,20.14-19.97c5.79,0,9.71,1.54,12.91,3.92    c0.88,0.66,1.65,1.88,1.65,3.37c0,2.32-1.88,4.14-4.2,4.14c-1.16,0-1.93-0.44-2.54-0.83c-2.37-1.77-4.85-2.76-7.89-2.76    c-6.51,0-11.2,5.41-11.2,12.03v0.11c0,6.62,4.58,12.14,11.2,12.14c3.59,0,5.96-1.1,8.38-3.03c0.66-0.55,1.55-0.94,2.54-0.94    c2.15,0,3.97,1.77,3.97,3.92c0,1.32-0.66,2.37-1.44,3.03c-3.47,3.03-7.56,4.86-13.74,4.86C229.66,40.44,221.22,31.67,221.22,20.58    "/>
		<path class="st0" d="M267.43,5.08c0-2.37,1.88-4.25,4.25-4.25c2.37,0,4.25,1.88,4.25,4.25v12.97l15.67-15.56    c1.05-1.05,2.1-1.65,3.59-1.65c2.37,0,3.92,1.82,3.92,3.92c0,1.32-0.61,2.32-1.54,3.2L286.68,18.1L298.54,33    c0.66,0.83,1.16,1.71,1.16,2.98c0,2.37-1.82,4.14-4.3,4.14c-1.66,0-2.65-0.83-3.59-2.04l-11.03-14.46l-4.86,4.52v7.72    c0,2.37-1.88,4.25-4.25,4.25c-2.37,0-4.25-1.88-4.25-4.25V5.08z"/>
		<path class="st0" d="M310.49,35.53V5.41c0-2.37,1.88-4.25,4.25-4.25h21.41c2.1,0,3.81,1.71,3.81,3.81c0,2.1-1.71,3.75-3.81,3.75    h-17.21v7.83h14.73c2.1,0,3.81,1.71,3.81,3.81s-1.71,3.75-3.81,3.75h-14.73v8.11h17.49c2.1,0,3.81,1.71,3.81,3.81    s-1.71,3.75-3.81,3.75h-21.68C312.37,39.78,310.49,37.9,310.49,35.53"/>
		<path class="st0" d="M361.33,9h-8.16c-2.15,0-3.92-1.76-3.92-3.92c0-2.15,1.76-3.92,3.92-3.92H378c2.15,0,3.92,1.77,3.92,3.92    c0,2.15-1.76,3.92-3.92,3.92h-8.16v26.87c0,2.37-1.88,4.25-4.25,4.25c-2.37,0-4.25-1.87-4.25-4.25V9z"/>
		<path class="st0" d="M391.31,35.7c-0.94-0.66-1.6-1.88-1.6-3.2c0-2.21,1.76-3.92,3.97-3.92c1.1,0,1.87,0.39,2.43,0.77    c2.93,2.15,6.12,3.48,9.88,3.48c3.47,0,5.57-1.38,5.57-3.64v-0.11c0-2.15-1.33-3.25-7.78-4.91c-7.78-1.99-12.8-4.14-12.8-11.8    v-0.11c0-7.01,5.63-11.64,13.52-11.64c4.69,0,8.77,1.22,12.25,3.42c0.94,0.55,1.88,1.71,1.88,3.36c0,2.21-1.77,3.92-3.97,3.92    c-0.83,0-1.49-0.22-2.15-0.61c-2.81-1.66-5.46-2.59-8.11-2.59c-3.26,0-4.97,1.49-4.97,3.36v0.11c0,2.54,1.66,3.37,8.33,5.08    c7.83,2.04,12.25,4.85,12.25,11.59v0.11c0,7.67-5.85,11.97-14.18,11.97C400.75,40.33,395.62,38.79,391.31,35.7"/>
	</g>
</g>
</svg>